<?xml version="1.0" encoding="UTF-8" standalone="no"?>
<!-- Created with Inkscape (http://www.inkscape.org/) -->

<svg
   xmlns:dc="http://purl.org/dc/elements/1.1/"
   xmlns:cc="http://creativecommons.org/ns#"
   xmlns:rdf="http://www.w3.org/1999/02/22-rdf-syntax-ns#"
   xmlns:svg="http://www.w3.org/2000/svg"
   xmlns="http://www.w3.org/2000/svg"
   xmlns:sodipodi="http://sodipodi.sourceforge.net/DTD/sodipodi-0.dtd"
   xmlns:inkscape="http://www.inkscape.org/namespaces/inkscape"
   width="7.4700027mm"
   height="10.356003mm"
   viewBox="0 0 26.468513 36.694498"
   id="svg2"
   version="1.1"
   inkscape:version="0.91 r13725"
   sodipodi:docname="Aleph.svg">
  <sodipodi:namedview
     id="base"
     pagecolor="#ffffff"
     bordercolor="#666666"
     borderopacity="1.0"
     inkscape:pageopacity="0.0"
     inkscape:pageshadow="2"
     inkscape:zoom="5.6"
     inkscape:cx="55.094459"
     inkscape:cy="30.406511"
     inkscape:document-units="px"
     inkscape:current-layer="layer1"
     showgrid="false"
     fit-margin-top="0"
     fit-margin-left="0"
     fit-margin-right="0"
     fit-margin-bottom="0" />
  <defs
     id="defs4" />
  <metadata
     id="metadata7">
    <rdf:RDF>
      <cc:Work
         rdf:about="">
        <dc:format>image/svg+xml</dc:format>
        <dc:type
           rdf:resource="http://purl.org/dc/dcmitype/StillImage" />
        <dc:title></dc:title>
      </cc:Work>
    </rdf:RDF>
  </metadata>
  <g
     id="layer1"
     inkscape:groupmode="layer"
     inkscape:label="Layer 1"
     transform="translate(-354.47051,-372.78808)">
    <g
       id="g3341"
       transform="translate(52.857143,51.785714)">
      <g
         word-spacing="normal"
         letter-spacing="normal"
         font-size-adjust="none"
         font-stretch="normal"
         font-weight="normal"
         font-variant="normal"
         font-style="normal"
         stroke-miterlimit="10.433"
         xml:space="preserve"
         transform="matrix(1.0629921,0,0,-1.0629921,-186.02362,789.27165)"
         id="content"
         style="font-style:normal;font-variant:normal;font-weight:normal;font-stretch:normal;letter-spacing:normal;word-spacing:normal;text-anchor:start;fill:none;fill-opacity:1;fill-rule:evenodd;stroke:#000000;stroke-linecap:butt;stroke-linejoin:miter;stroke-miterlimit:10.43299961;stroke-dasharray:none;stroke-dashoffset:0;stroke-opacity:1"><path
           id="path3344"
           d="m 479.41,411.58 0.21,-0.24 0.19,-0.23 0.18,-0.22 0.17,-0.22 0.16,-0.21 0.15,-0.21 0.13,-0.21 0.13,-0.19 0.12,-0.2 0.11,-0.18 0.1,-0.19 0.1,-0.17 0.08,-0.18 0.08,-0.16 0.07,-0.17 0.06,-0.15 0.06,-0.16 0.05,-0.14 0.05,-0.15 0.04,-0.14 0.04,-0.13 0.03,-0.13 0.02,-0.12 0.03,-0.13 0.02,-0.11 0.01,-0.11 0.01,-0.11 0.02,-0.1 0,-0.1 0.01,-0.1 0.01,-0.09 0,-0.08 c 0.05,-0.35 0.3,-0.5 0.5,-0.5 0.25,0 1.29,0.6 1.29,3.19 0,0.94 0,1.94 -2.48,4.98 l -2.95,3.39 1.95,12.95 c 0.15,-0.15 1.54,-1.7 1.69,-3.49 0,-0.2 0.05,-0.65 0.5,-0.65 0.25,0 1.29,0.6 1.29,3.19 0,1.69 -0.39,2.39 -2.68,4.48 -1.2,1.05 -3.49,5.03 -3.84,5.93 -0.1,0.25 -0.2,0.5 -0.5,0.5 -0.24,0 -1.29,-0.6 -1.29,-3.19 0,-1.54 0.49,-2.59 3.33,-5.33 -0.09,-1.44 -0.2,-2.79 -0.79,-6.12 -0.8,-4.44 -0.85,-4.84 -1.05,-6.68 l -13.85,15.79 c -2.24,2.54 -2.39,4.13 -2.44,5.03 -0.05,0.35 -0.3,0.5 -0.49,0.5 -0.25,0 -1.3,-0.6 -1.3,-3.19 0,-0.94 0,-1.94 2.49,-4.98 l 2.94,-3.39 c -2.59,-4.08 -4.04,-7.67 -4.04,-10.96 0,-1.64 0.45,-2.79 1.75,-5.23 0.8,-1.44 1.24,-2.68 1.24,-3.73 0,-0.55 0,-1.84 -3.53,-1.94 -0.5,0 -0.85,0 -0.85,-0.55 0,-0.55 0.45,-0.55 1.35,-0.55 l 2.79,0 c 1.34,0 5.08,0.1 5.08,2.94 0,1.89 -1.15,3.29 -2.3,4.68 -2.04,2.44 -2.19,3.14 -2.19,4.68 0,1.95 0.25,5.98 1.85,9.37 z"
           inkscape:connector-curvature="0"
           style="fill:#000000;stroke-width:0" /></g>    </g>
  </g>
</svg>
